<svg xmlns="http://www.w3.org/2000/svg" width="473.652" height="761.168" fill="none"><path stroke="#D0D5F6" stroke-width="2" d="M300.952 758.203s153.131-32.43 159.437-119.074c6.307-86.643-231.598-17.186-136.357-198 95.24-180.813 181.317-185.289 136.357-298C415.43 30.419 294.703-28.75 154.452 16.004 14.201 60.757.999 348.129.999 348.129"/><path stroke="#D0D5F6" stroke-width="2" d="M258.963 758.203s120.124-28.481 125.072-104.574c4.947-76.094-181.679-15.094-106.967-173.891 74.712-158.796 142.236-162.727 106.967-261.714-35.269-98.986-129.974-150.95-239.995-111.646C34.019 145.682 23.662 398.062 23.662 398.062"/><path stroke="#D0D5F6" stroke-width="2" d="M222.728 760.203s90.905-24.841 94.649-91.208c3.744-66.367-137.487-13.164-80.948-151.664 56.539-138.499 107.638-141.927 80.948-228.261-26.69-86.334-98.359-131.656-181.618-97.376-83.26 34.281-91.097 254.401-91.097 254.401"/></svg>