<svg xmlns="http://www.w3.org/2000/svg" width="473.652" height="761.168" fill="none"><path stroke="#D0D5F6" stroke-width="2" d="M172.7 2.965S19.569 35.395 13.262 122.039c-6.307 86.643 231.599 17.186 136.358 198-95.24 180.813-181.317 185.289-136.358 298C58.222 730.749 178.95 789.918 319.2 745.164c140.251-44.753 153.453-332.125 153.453-332.125"/><path stroke="#D0D5F6" stroke-width="2" d="M214.689 2.965S94.564 31.446 89.617 107.539c-4.948 76.094 181.679 15.094 106.967 173.891C121.871 440.226 54.348 444.157 89.617 543.144c35.269 98.986 129.974 150.95 239.995 111.646 110.021-39.305 120.377-291.684 120.377-291.684"/><path stroke="#D0D5F6" stroke-width="2" d="M250.924.965s-90.905 24.84-94.649 91.208c-3.744 66.367 137.487 13.164 80.948 151.663-56.539 138.5-107.638 141.928-80.948 228.262 26.69 86.334 98.359 131.656 181.618 97.376 83.259-34.281 91.096-254.401 91.096-254.401"/></svg>